<?xml version="1.0" encoding="UTF-8" standalone="no"?>
<svg width="100%" height="100%" viewBox="0 0 1215 175" version="1.1" xmlns="http://www.w3.org/2000/svg" xml:space="preserve" style="fill-rule:evenodd;clip-rule:evenodd;stroke-linejoin:round;stroke-miterlimit:2;">
	<!-- Snowflake mark -->
	<g transform="translate(10,10)" style="fill:none;stroke:var(--color-brand);stroke-width:11;stroke-linecap:round;">
		<line x1="77.5" y1="8" x2="77.5" y2="147" />
		<line x1="17" y1="42.5" x2="138" y2="112.5" />
		<line x1="17" y1="112.5" x2="138" y2="42.5" />
		<line x1="77.5" y1="8" x2="60" y2="26" />
		<line x1="77.5" y1="8" x2="95" y2="26" />
		<line x1="77.5" y1="147" x2="60" y2="129" />
		<line x1="77.5" y1="147" x2="95" y2="129" />
		<line x1="17" y1="42.5" x2="17" y2="66" />
		<line x1="17" y1="42.5" x2="38" y2="34" />
		<line x1="138" y1="112.5" x2="138" y2="89" />
		<line x1="138" y1="112.5" x2="117" y2="121" />
		<line x1="17" y1="112.5" x2="17" y2="89" />
		<line x1="17" y1="112.5" x2="38" y2="121" />
		<line x1="138" y1="42.5" x2="138" y2="66" />
		<line x1="138" y1="42.5" x2="117" y2="34" />
	</g>
	<!-- Wordmark -->
	<text x="200" y="118" font-family="Arial, 'Segoe UI', Helvetica, sans-serif" font-weight="800" font-size="98" letter-spacing="-1" style="fill:currentColor;">Xmas<tspan style="fill:var(--color-brand);">Legacy</tspan></text>
</svg>
